<svg width="100%" height="auto" viewBox="0 0 24 24" fill="none" xmlns="http://www.w3.org/2000/svg"><rect width="24" height="24" fill="none" rx="0" ry="0"></rect><path fill-rule="evenodd" clip-rule="evenodd" d="M15.4282 13.0001H5.03369C4.48096 13.0001 4.03369 12.5529 4.03369 12.0001C4.03369 11.4474 4.48096 11.0001 5.03369 11.0001H15.4282C15.981 11.0001 16.4282 11.4474 16.4282 12.0001C16.4282 12.5529 15.981 13.0001 15.4282 13.0001Z
" fill="#f7293d"></path><path fill-rule="evenodd" clip-rule="evenodd" d="M18.9663 5.81641H5.03369C4.48096 5.81641 4.03369 5.36914 4.03369 4.81641C4.03369 4.26367 4.48096 3.81641 5.03369 3.81641H18.9663C19.519 3.81641 19.9663 4.26367 19.9663 4.81641C19.9663 5.36914 19.519 5.81641 18.9663 5.81641ZM5.03369 18.1836H18.9663C19.519 18.1836 19.9663 18.6309 19.9663 19.1836C19.9663 19.7363 19.519 20.1836 18.9663 20.1836H5.03369C4.48096 20.1836 4.03369 19.7363 4.03369 19.1836C4.03369 18.6309 4.48096 18.1836 5.03369 18.1836Z
" fill="#dcdcdd"></path><path fill-rule="evenodd" clip-rule="evenodd" d="M18.9663 18.1836H5.03369C4.48096 18.1836 4.03369 18.6309 4.03369 19.1836C4.03369 19.7363 4.48096 20.1836 5.03369 20.1836H18.9663C19.519 20.1836 19.9663 19.7363 19.9663 19.1836C19.9663 18.6309 19.519 18.1836 18.9663 18.1836Z
" fill="black" fill-opacity="0.3"></path></svg>